HIERARCHY
ROOT joint_0
{
	OFFSET 0.000000 0.000000 0.000000
	CHANNELS 6 Xposition Yposition Zposition Zrotation Yrotation Xrotation 
	JOINT joint_1
	{
		OFFSET 8.185791 -2.713684 100.414917
		CHANNELS 3 Zrotation Yrotation Xrotation
		JOINT joint_2
		{
			OFFSET -4.376465 -1.111145 91.934082
			CHANNELS 3 Zrotation Yrotation Xrotation
			JOINT joint_3
			{
				OFFSET -6.985840 -1.054016 91.669922
				CHANNELS 3 Zrotation Yrotation Xrotation
				JOINT joint_4
				{
					OFFSET 0.150391 -4.451904 123.526001
					CHANNELS 3 Zrotation Yrotation Xrotation
					JOINT joint_5
					{
						OFFSET 19.754150 -8.123901 80.916992
						CHANNELS 3 Zrotation Yrotation Xrotation
						End Site
						{
							OFFSET 0.000000 0.000000 0.000000
						}
					}
				}
				JOINT joint_6
				{
					OFFSET -6.477539 -28.517334 68.237061
					CHANNELS 3 Zrotation Yrotation Xrotation
					JOINT joint_7
					{
						OFFSET -20.564453 -115.426208 -21.139038
						CHANNELS 3 Zrotation Yrotation Xrotation
						JOINT joint_8
						{
							OFFSET 18.981934 -19.826172 -267.898926
							CHANNELS 3 Zrotation Yrotation Xrotation
							JOINT joint_9
							{
								OFFSET 11.562744 -19.325867 -235.478027
								CHANNELS 3 Zrotation Yrotation Xrotation
								End Site
								{
									OFFSET 0.000000 0.000000 0.000000
								}
							}
						}
					}
				}
				JOINT joint_10
				{
					OFFSET 7.033936 23.504700 70.088989
					CHANNELS 3 Zrotation Yrotation Xrotation
					JOINT joint_11
					{
						OFFSET 36.629639 112.486816 -14.036987
						CHANNELS 3 Zrotation Yrotation Xrotation
						JOINT joint_12
						{
							OFFSET 41.355225 -7.048523 -266.019897
							CHANNELS 3 Zrotation Yrotation Xrotation
							JOINT joint_13
							{
								OFFSET 5.858887 29.785156 -234.603027
								CHANNELS 3 Zrotation Yrotation Xrotation
								End Site
								{
									OFFSET 0.000000 0.000000 0.000000
								}
							}
						}
					}
				}
			}
		}
	}
	JOINT joint_14
	{
		OFFSET -8.917725 -79.985535 -99.035034
		CHANNELS 3 Zrotation Yrotation Xrotation
		JOINT joint_15
		{
			OFFSET -32.739502 -31.478882 -502.570984
			CHANNELS 3 Zrotation Yrotation Xrotation
			JOINT joint_16
			{
				OFFSET 7.393066 -29.352966 -399.008011
				CHANNELS 3 Zrotation Yrotation Xrotation
				JOINT joint_17
				{
					OFFSET 178.013916 -26.060303 -71.875002
					CHANNELS 3 Zrotation Yrotation Xrotation
					End Site
					{
						OFFSET 0.000000 0.000000 0.000000
					}
				}
			}
		}
	}
	JOINT joint_18
	{
		OFFSET 1.900879 81.159851 -98.481018
		CHANNELS 3 Zrotation Yrotation Xrotation
		JOINT joint_19
		{
			OFFSET -15.120850 31.602051 -503.400024
			CHANNELS 3 Zrotation Yrotation Xrotation
			JOINT joint_20
			{
				OFFSET -16.653076 23.887695 -399.091988
				CHANNELS 3 Zrotation Yrotation Xrotation
				JOINT joint_21
				{
					OFFSET 179.618164 -1.217651 -72.592001
					CHANNELS 3 Zrotation Yrotation Xrotation
					End Site
					{
						OFFSET 0.000000 0.000000 0.000000
					}
				}
			}
		}
	}
}
MOTION
Frames: 6
Frame Time: 0.016667
-2912.716309 611.196716 1096.515015 2.344720 -2.424613 -0.106416 2.440945 4.810971 -0.926317 2.456983 -0.971282 0.329796 2.443134 0.996109 -0.174498 0.091085 -0.731531 -0.659219 0.000000 0.000000 0.000000 -2.010932 -0.676156 0.202573 0.247897 -1.473690 2.362350 -0.061856 0.736709 0.088918 0.000000 0.000000 0.000000 1.127255 2.507887 -1.272487 0.501916 -0.153012 6.629459 -1.854631 -7.638941 -10.785031 0.000000 0.000000 0.000000 0.274756 2.546984 -1.083296 -0.015286 3.655601 2.351385 0.400761 -2.396689 -0.189597 0.000000 0.000000 0.000000 1.193094 3.506145 0.583007 1.172993 2.067955 -1.428680 0.800003 -3.068844 0.302220 0.000000 0.000000 0.000000 
-2913.033447 611.450500 1096.512939 2.359104 -2.450169 -0.104126 2.448622 4.824332 -0.927453 2.464385 -0.975559 0.329083 2.450706 0.999975 -0.174184 0.087177 -0.720743 -0.638693 0.000000 0.000000 0.000000 -2.024908 -0.660979 0.232870 0.245610 -1.453669 2.353266 -0.063756 0.753977 0.082899 0.000000 0.000000 0.000000 1.129163 2.544183 -1.270002 0.495210 -0.116428 6.628708 -1.857589 -7.643673 -10.783630 0.000000 0.000000 0.000000 0.273075 2.547022 -1.109719 -0.021418 3.681289 2.368087 0.396800 -2.401205 -0.191858 0.000000 0.000000 0.000000 1.191203 3.501482 0.571149 1.172890 2.093623 -1.441285 0.798599 -3.060072 0.301721 0.000000 0.000000 0.000000 
-2913.348877 611.714355 1096.506958 2.367789 -2.476192 -0.101712 2.455837 4.836584 -0.929720 2.471406 -0.979029 0.329117 2.457835 1.003614 -0.173767 0.083177 -0.708962 -0.617406 0.000000 0.000000 0.000000 -2.038066 -0.645277 0.262936 0.243376 -1.433479 2.346755 -0.066383 0.778845 0.076206 0.000000 0.000000 0.000000 1.131360 2.582948 -1.267248 0.487272 -0.075998 6.623617 -1.860897 -7.653259 -10.782222 0.000000 0.000000 0.000000 0.273281 2.546773 -1.137697 -0.025915 3.707521 2.386345 0.394510 -2.405951 -0.193481 0.000000 0.000000 0.000000 1.191028 3.498028 0.558443 1.174396 2.119427 -1.453491 0.798807 -3.050932 0.301874 0.000000 0.000000 0.000000 
-2913.656494 612.000488 1096.498047 2.371542 -2.504224 -0.098710 2.461089 4.850597 -0.931615 2.476439 -0.985662 0.331002 2.462827 1.010238 -0.174498 0.080340 -0.695737 -0.600325 0.000000 0.000000 0.000000 -2.051253 -0.631989 0.293589 0.241083 -1.415512 2.339822 -0.070210 0.816292 0.068430 0.000000 0.000000 0.000000 1.134777 2.625398 -1.267844 0.478039 -0.032700 6.616975 -1.864840 -7.670971 -10.779780 0.000000 0.000000 0.000000 0.275400 2.549251 -1.170050 -0.028824 3.732531 2.409257 0.393605 -2.410110 -0.194461 0.000000 0.000000 0.000000 1.192188 3.498240 0.542979 1.176779 2.143876 -1.463577 0.800215 -3.038652 0.302531 0.000000 0.000000 0.000000 
-2913.957520 612.302979 1096.484985 2.369793 -2.532718 -0.095643 2.464579 4.862300 -0.933337 2.479693 -0.990648 0.333131 2.465975 1.016226 -0.175431 0.078223 -0.679974 -0.585199 0.000000 0.000000 0.000000 -2.060995 -0.619415 0.323662 0.238744 -1.398044 2.334728 -0.075198 0.866058 0.060091 0.000000 0.000000 0.000000 1.141292 2.672085 -1.269808 0.467437 0.014944 6.607169 -1.869332 -7.695168 -10.777222 0.000000 0.000000 0.000000 0.279470 2.552412 -1.205085 -0.030055 3.756566 2.435360 0.394232 -2.413990 -0.194784 0.000000 0.000000 0.000000 1.194940 3.500256 0.525942 1.180502 2.167520 -1.472225 0.803112 -3.025094 0.303797 0.000000 0.000000 0.000000 
-2914.262939 612.614258 1096.468018 2.364583 -2.564374 -0.092402 2.466955 4.878776 -0.932897 2.481632 -0.997011 0.334561 2.467914 1.021943 -0.175882 0.076528 -0.664500 -0.571935 0.000000 0.000000 0.000000 -2.071326 -0.605749 0.353631 0.236468 -1.379696 2.330031 -0.079575 0.909914 0.053150 0.000000 0.000000 0.000000 1.149204 2.717430 -1.273177 0.456333 0.061345 6.595052 -1.873840 -7.722775 -10.772695 0.000000 0.000000 0.000000 0.284742 2.557242 -1.241255 -0.030277 3.783258 2.462443 0.396199 -2.419679 -0.194834 0.000000 0.000000 0.000000 1.198800 3.505266 0.508624 1.185246 2.192498 -1.481581 0.806909 -3.011634 0.305425 0.000000 0.000000 0.000000 
